<svg width="2000" height="1600" viewBox="0 0 2000 1600" fill="none" xmlns="http://www.w3.org/2000/svg">
<ellipse cx="101" cy="895.565" rx="13" ry="13.5652" fill="#F4D9A5"/>
<ellipse cx="101" cy="895.565" rx="10.7391" ry="11.3043" fill="#383432"/>
<path d="M91.2789 886.509C89.5712 888.507 88.472 890.99 88.1203 893.646C87.7686 896.301 88.1802 899.01 89.303 901.429C90.4259 903.848 92.2095 905.868 94.4283 907.235C96.6472 908.602 99.2017 909.254 101.769 909.109C104.336 908.963 106.8 908.026 108.85 906.417C110.9 904.808 112.443 902.598 113.285 900.067C114.127 897.537 114.23 894.799 113.58 892.201C112.93 889.602 111.557 887.259 109.634 885.468L107.753 887.667C109.257 889.068 110.331 890.901 110.839 892.933C111.348 894.966 111.268 897.107 110.609 899.087C109.951 901.066 108.743 902.794 107.14 904.053C105.537 905.312 103.609 906.044 101.601 906.158C99.5934 906.272 97.5954 905.762 95.8599 904.693C94.1244 903.624 92.7293 902.043 91.8511 900.151C90.9729 898.259 90.6509 896.141 90.926 894.064C91.2011 891.987 92.0608 890.044 93.3965 888.482L91.2789 886.509Z" fill="#383432"/>
<path d="M99.8696 905.739L101.565 909.13L95.4642 913.37L99.8696 905.739Z" fill="#383432"/>
<path d="M100.748 906.877L105.65 915.079L101.118 913.083L96.8542 915.602L100.748 906.877Z" fill="#383432"/>
<path d="M102.13 905.739L106.536 913.37L101 909.13L102.13 905.739Z" fill="#383432"/>
<line x1="98.674" y1="908.63" x2="103.326" y2="908.63" stroke="#913737" stroke-linecap="round"/>
<line x1="81.306" y1="922.538" x2="87.4308" y2="885.035" stroke="#635141" stroke-width="2"/>
<line x1="87.4308" y1="885.035" x2="88.7202" y2="877.14" stroke="#E3EBEF" stroke-width="2"/>
<line x1="88.4309" y1="879.035" x2="89.7203" y2="871.14" stroke="#322E2B" stroke-width="2"/>
<ellipse cx="301" cy="895.565" rx="13" ry="13.5652" fill="#F4D9A5"/>
<ellipse cx="301" cy="895.565" rx="10.7391" ry="11.3043" fill="#383432"/>
<path d="M291.418 886.362C289.68 888.333 288.543 890.799 288.151 893.449C287.759 896.099 288.129 898.813 289.215 901.249C290.3 903.685 292.053 905.733 294.251 907.134C296.448 908.534 298.992 909.225 301.561 909.119C304.13 909.012 306.609 908.113 308.683 906.536C310.757 904.958 312.334 902.772 313.215 900.255C314.095 897.738 314.24 895.002 313.63 892.393C313.02 889.785 311.682 887.421 309.787 885.601L307.873 887.772C309.355 889.195 310.401 891.044 310.878 893.084C311.356 895.124 311.243 897.264 310.554 899.233C309.865 901.202 308.632 902.912 307.009 904.146C305.387 905.38 303.448 906.083 301.439 906.166C299.43 906.25 297.44 905.709 295.721 904.614C294.002 903.518 292.631 901.916 291.782 900.011C290.933 898.106 290.643 895.982 290.95 893.91C291.257 891.837 292.146 889.908 293.506 888.367L291.418 886.362Z" fill="#383432"/>
<path d="M299.413 905.607L301.494 908.776L295.932 913.701L299.413 905.607Z" fill="#383432"/>
<path d="M300.457 906.905L305.912 914.749L301.253 913.071L297.174 915.877L300.457 906.905Z" fill="#383432"/>
<path d="M301.883 905.855L306.781 913.179L300.978 909.314L301.883 905.855Z" fill="#383432"/>
<line x1="298.674" y1="908.63" x2="303.326" y2="908.63" stroke="#913737" stroke-linecap="round"/>
<line x1="274.644" y1="922.035" x2="288.564" y2="886.676" stroke="#635141" stroke-width="2"/>
<line x1="272.458" y1="896.079" x2="304.399" y2="875.493" stroke="#E3EBEF" stroke-width="2"/>
<line x1="304.399" y1="875.493" x2="311.124" y2="871.159" stroke="#322E2B" stroke-width="2"/>
<ellipse cx="501" cy="895.565" rx="13" ry="13.5652" fill="#F4D9A5"/>
<ellipse cx="501" cy="895.565" rx="10.7391" ry="11.3043" fill="#383432"/>
<path d="M492.287 885.536C490.378 887.342 489.024 889.696 488.394 892.299C487.765 894.903 487.889 897.64 488.751 900.164C489.612 902.688 491.173 904.885 493.236 906.478C495.298 908.071 497.77 908.989 500.338 909.114C502.906 909.24 505.455 908.568 507.663 907.183C509.871 905.799 511.639 903.764 512.743 901.337C513.846 898.909 514.237 896.197 513.864 893.544C513.492 890.892 512.373 888.417 510.65 886.433L508.548 888.423C509.896 889.974 510.771 891.91 511.062 893.985C511.353 896.059 511.048 898.18 510.185 900.079C509.321 901.978 507.939 903.57 506.212 904.653C504.485 905.735 502.491 906.261 500.482 906.163C498.473 906.065 496.54 905.347 494.927 904.101C493.314 902.855 492.093 901.136 491.419 899.162C490.745 897.188 490.648 895.047 491.14 893.011C491.633 890.974 492.692 889.133 494.185 887.721L492.287 885.536Z" fill="#383432"/>
<path d="M499.289 905.58L501.469 908.683L496.064 913.78L499.289 905.58Z" fill="#383432"/>
<path d="M500.897 906.871L505.507 915.239L501.048 913.086L496.699 915.454L500.897 906.871Z" fill="#383432"/>
<path d="M501.701 905.954L506.958 913.025L500.97 909.453L501.701 905.954Z" fill="#383432"/>
<line x1="498.674" y1="908.63" x2="503.326" y2="908.63" stroke="#913737" stroke-linecap="round"/>
<line x1="481.381" y1="924.642" x2="486.981" y2="887.056" stroke="#635141" stroke-width="2"/>
<line x1="481.148" y1="873.011" x2="518.728" y2="878.645" stroke="#E3EBEF" stroke-width="2"/>
<line x1="518.728" y1="878.645" x2="526.64" y2="879.831" stroke="#322E2B" stroke-width="2"/>
<ellipse cx="701" cy="895.565" rx="13" ry="13.5652" fill="#F4D9A5"/>
<ellipse cx="701" cy="895.565" rx="10.7391" ry="11.3043" fill="#383432"/>
<path d="M692.287 885.536C690.378 887.342 689.024 889.696 688.394 892.3C687.765 894.903 687.889 897.64 688.751 900.164C689.612 902.688 691.173 904.885 693.236 906.478C695.298 908.071 697.77 908.989 700.338 909.114C702.906 909.24 705.455 908.568 707.663 907.183C709.871 905.799 711.639 903.764 712.743 901.337C713.847 898.909 714.237 896.197 713.864 893.544C713.492 890.892 712.373 888.417 710.65 886.433L708.548 888.423C709.896 889.974 710.771 891.91 711.062 893.985C711.353 896.059 711.048 898.18 710.185 900.079C709.321 901.978 707.939 903.57 706.212 904.653C704.485 905.735 702.491 906.261 700.482 906.163C698.473 906.065 696.54 905.347 694.927 904.101C693.314 902.855 692.093 901.136 691.419 899.162C690.745 897.188 690.648 895.047 691.14 893.011C691.633 890.974 692.692 889.133 694.185 887.721L692.287 885.536Z" fill="#383432"/>
<path d="M699.289 905.58L701.469 908.683L696.064 913.78L699.289 905.58Z" fill="#383432"/>
<path d="M700.897 906.871L705.507 915.239L701.048 913.086L696.699 915.454L700.897 906.871Z" fill="#383432"/>
<path d="M701.701 905.954L706.958 913.025L700.97 909.453L701.701 905.954Z" fill="#383432"/>
<line x1="698.674" y1="908.63" x2="703.326" y2="908.63" stroke="#913737" stroke-linecap="round"/>
<line x1="681.381" y1="924.642" x2="686.981" y2="887.056" stroke="#635141" stroke-width="2"/>
<line x1="688.463" y1="868.114" x2="722.141" y2="885.715" stroke="#E3EBEF" stroke-width="2"/>
<line x1="722.141" y1="885.715" x2="729.231" y2="889.42" stroke="#322E2B" stroke-width="2"/>
<ellipse cx="901" cy="895.565" rx="13" ry="13.5652" fill="#F4D9A5"/>
<ellipse cx="901" cy="895.565" rx="10.7391" ry="11.3043" fill="#383432"/>
<path d="M892.287 885.536C890.378 887.342 889.024 889.696 888.394 892.299C887.765 894.903 887.889 897.64 888.75 900.164C889.612 902.688 891.173 904.885 893.236 906.478C895.298 908.071 897.77 908.989 900.338 909.114C902.906 909.24 905.455 908.568 907.663 907.183C909.871 905.799 911.639 903.764 912.743 901.337C913.846 898.909 914.237 896.197 913.864 893.544C913.492 890.892 912.373 888.417 910.65 886.433L908.548 888.423C909.896 889.974 910.77 891.91 911.062 893.985C911.353 896.059 911.048 898.18 910.185 900.079C909.321 901.978 907.939 903.57 906.212 904.653C904.485 905.735 902.491 906.261 900.482 906.163C898.473 906.065 896.54 905.347 894.927 904.101C893.314 902.855 892.093 901.136 891.419 899.162C890.745 897.188 890.648 895.047 891.14 893.011C891.633 890.974 892.692 889.133 894.185 887.721L892.287 885.536Z" fill="#383432"/>
<path d="M899.289 905.58L901.469 908.683L896.064 913.78L899.289 905.58Z" fill="#383432"/>
<path d="M900.897 906.871L905.507 915.239L901.048 913.086L896.699 915.454L900.897 906.871Z" fill="#383432"/>
<path d="M901.701 905.954L906.958 913.025L900.97 909.453L901.701 905.954Z" fill="#383432"/>
<line x1="898.674" y1="908.63" x2="903.326" y2="908.63" stroke="#913737" stroke-linecap="round"/>
<line x1="881.381" y1="924.642" x2="886.981" y2="887.056" stroke="#635141" stroke-width="2"/>
<line x1="885.059" y1="868.978" x2="920.847" y2="881.755" stroke="#E3EBEF" stroke-width="2"/>
<line x1="920.847" y1="881.755" x2="928.381" y2="884.445" stroke="#322E2B" stroke-width="2"/>
<ellipse cx="1101" cy="895.565" rx="13" ry="13.5652" fill="#F4D9A5"/>
<ellipse cx="1101" cy="895.565" rx="10.7391" ry="11.3043" fill="#383432"/>
<path d="M1092.29 885.536C1090.38 887.342 1089.02 889.696 1088.39 892.3C1087.76 894.903 1087.89 897.64 1088.75 900.164C1089.61 902.688 1091.17 904.885 1093.24 906.478C1095.3 908.071 1097.77 908.989 1100.34 909.114C1102.91 909.24 1105.46 908.568 1107.66 907.183C1109.87 905.799 1111.64 903.764 1112.74 901.337C1113.85 898.909 1114.24 896.197 1113.86 893.544C1113.49 890.892 1112.37 888.417 1110.65 886.433L1108.55 888.423C1109.9 889.974 1110.77 891.91 1111.06 893.985C1111.35 896.059 1111.05 898.18 1110.18 900.079C1109.32 901.978 1107.94 903.57 1106.21 904.653C1104.48 905.735 1102.49 906.261 1100.48 906.163C1098.47 906.065 1096.54 905.347 1094.93 904.101C1093.31 902.855 1092.09 901.136 1091.42 899.162C1090.74 897.188 1090.65 895.047 1091.14 893.011C1091.63 890.974 1092.69 889.133 1094.18 887.721L1092.29 885.536Z" fill="#383432"/>
<path d="M1099.29 905.58L1101.47 908.683L1096.06 913.78L1099.29 905.58Z" fill="#383432"/>
<path d="M1100.9 906.871L1105.51 915.239L1101.05 913.086L1096.7 915.454L1100.9 906.871Z" fill="#383432"/>
<path d="M1101.7 905.954L1106.96 913.025L1100.97 909.453L1101.7 905.954Z" fill="#383432"/>
<line x1="1098.67" y1="908.63" x2="1103.33" y2="908.63" stroke="#913737" stroke-linecap="round"/>
<line x1="1081.38" y1="924.642" x2="1086.98" y2="887.056" stroke="#635141" stroke-width="2"/>
<line x1="1084.41" y1="871.788" x2="1121.14" y2="881.533" stroke="#E3EBEF" stroke-width="2"/>
<line x1="1121.14" y1="881.533" x2="1128.87" y2="883.585" stroke="#322E2B" stroke-width="2"/>
<ellipse cx="1301" cy="895.565" rx="13" ry="13.5652" fill="#F4D9A5"/>
<ellipse cx="1301" cy="895.565" rx="10.7391" ry="11.3043" fill="#383432"/>
<path d="M1292.29 885.536C1290.38 887.342 1289.02 889.696 1288.39 892.3C1287.76 894.903 1287.89 897.64 1288.75 900.164C1289.61 902.688 1291.17 904.885 1293.24 906.478C1295.3 908.071 1297.77 908.989 1300.34 909.114C1302.91 909.24 1305.45 908.568 1307.66 907.183C1309.87 905.799 1311.64 903.764 1312.74 901.337C1313.85 898.909 1314.24 896.197 1313.86 893.544C1313.49 890.892 1312.37 888.417 1310.65 886.433L1308.55 888.423C1309.9 889.974 1310.77 891.91 1311.06 893.985C1311.35 896.06 1311.05 898.18 1310.18 900.079C1309.32 901.978 1307.94 903.57 1306.21 904.653C1304.48 905.735 1302.49 906.261 1300.48 906.163C1298.47 906.065 1296.54 905.347 1294.93 904.101C1293.31 902.855 1292.09 901.136 1291.42 899.162C1290.74 897.188 1290.65 895.048 1291.14 893.011C1291.63 890.974 1292.69 889.133 1294.18 887.721L1292.29 885.536Z" fill="#383432"/>
<path d="M1299.29 905.58L1301.47 908.683L1296.06 913.78L1299.29 905.58Z" fill="#383432"/>
<path d="M1300.9 906.871L1305.51 915.24L1301.05 913.086L1296.7 915.454L1300.9 906.871Z" fill="#383432"/>
<path d="M1301.7 905.954L1306.96 913.025L1300.97 909.453L1301.7 905.954Z" fill="#383432"/>
<line x1="1298.67" y1="908.63" x2="1303.33" y2="908.63" stroke="#913737" stroke-linecap="round"/>
<line x1="1281.38" y1="924.642" x2="1286.98" y2="887.056" stroke="#635141" stroke-width="2"/>
<line x1="1280.74" y1="876.486" x2="1318.38" y2="881.735" stroke="#E3EBEF" stroke-width="2"/>
<line x1="1318.38" y1="881.735" x2="1326.3" y2="882.839" stroke="#322E2B" stroke-width="2"/>
<path d="M1289 874L1289.67 876.073H1291.85L1290.09 877.354L1290.76 879.427L1289 878.146L1287.24 879.427L1287.91 877.354L1286.15 876.073H1288.33L1289 874Z" fill="white"/>
<path d="M1295.22 875.588L1296.99 876.854L1298.74 875.558L1298.09 877.637L1299.86 878.902L1297.68 878.921L1297.03 881L1296.33 878.933L1294.15 878.952L1295.91 877.655L1295.22 875.588Z" fill="white"/>
<path d="M1293.41 870.823L1294.21 873.297L1296.81 873.297L1294.71 874.826L1295.51 877.3L1293.41 875.771L1291.3 877.3L1292.11 874.826L1290 873.297L1292.6 873.297L1293.41 870.823Z" fill="#FFF7B1"/>
<ellipse cx="1501" cy="895.565" rx="13" ry="13.5652" fill="#F4D9A5"/>
<ellipse cx="1501" cy="895.565" rx="10.7391" ry="11.3043" fill="#383432"/>
<path d="M1492.29 885.536C1490.38 887.342 1489.02 889.696 1488.39 892.3C1487.76 894.903 1487.89 897.64 1488.75 900.164C1489.61 902.688 1491.17 904.885 1493.23 906.478C1495.3 908.071 1497.77 908.989 1500.34 909.114C1502.91 909.24 1505.45 908.568 1507.66 907.183C1509.87 905.799 1511.64 903.764 1512.74 901.337C1513.85 898.909 1514.24 896.197 1513.86 893.544C1513.49 890.892 1512.37 888.417 1510.65 886.433L1508.55 888.423C1509.89 889.974 1510.77 891.91 1511.06 893.985C1511.35 896.06 1511.05 898.18 1510.18 900.079C1509.32 901.978 1507.94 903.57 1506.21 904.653C1504.48 905.735 1502.49 906.261 1500.48 906.163C1498.47 906.065 1496.54 905.347 1494.93 904.101C1493.31 902.855 1492.09 901.136 1491.42 899.162C1490.74 897.188 1490.65 895.048 1491.14 893.011C1491.63 890.974 1492.69 889.133 1494.18 887.721L1492.29 885.536Z" fill="#383432"/>
<path d="M1499.29 905.58L1501.47 908.683L1496.06 913.78L1499.29 905.58Z" fill="#383432"/>
<path d="M1500.9 906.871L1505.51 915.24L1501.05 913.086L1496.7 915.454L1500.9 906.871Z" fill="#383432"/>
<path d="M1501.7 905.954L1506.96 913.025L1500.97 909.453L1501.7 905.954Z" fill="#383432"/>
<line x1="1498.67" y1="908.63" x2="1503.33" y2="908.63" stroke="#913737" stroke-linecap="round"/>
<line x1="1481.38" y1="924.642" x2="1486.98" y2="887.057" stroke="#635141" stroke-width="2"/>
<line x1="1480.74" y1="876.486" x2="1518.38" y2="881.735" stroke="#E3EBEF" stroke-width="2"/>
<line x1="1518.38" y1="881.735" x2="1526.3" y2="882.839" stroke="#322E2B" stroke-width="2"/>
<path d="M1489 874L1489.67 876.073H1491.85L1490.09 877.354L1490.76 879.427L1489 878.146L1487.24 879.427L1487.91 877.354L1486.15 876.073H1488.33L1489 874Z" fill="white"/>
<path d="M1500.22 875.588L1501.99 876.854L1503.74 875.558L1503.09 877.637L1504.86 878.902L1502.68 878.921L1502.03 881L1501.33 878.933L1499.15 878.952L1500.91 877.655L1500.22 875.588Z" fill="white"/>
<path d="M1495.41 875.823L1496.21 878.297L1498.81 878.297L1496.71 879.826L1497.51 882.3L1495.41 880.771L1493.3 882.3L1494.11 879.826L1492 878.297L1494.6 878.297L1495.41 875.823Z" fill="#FFF7B1"/>
<line x1="85.5575" y1="723.892" x2="87.9441" y2="685.967" stroke="#635141" stroke-width="2"/>
<line x1="87.9441" y1="685.967" x2="88.4465" y2="677.983" stroke="#322E2B" stroke-width="2"/>
<ellipse cx="101" cy="695.565" rx="13" ry="13.5652" fill="#F4D9A5"/>
<ellipse cx="101" cy="695.565" rx="10.7391" ry="11.3043" fill="#383432"/>
<path d="M91.2788 686.509C89.5712 688.507 88.472 690.99 88.1203 693.646C87.7686 696.301 88.1802 699.01 89.303 701.429C90.4258 703.848 92.2094 705.868 94.4283 707.235C96.6472 708.602 99.2016 709.254 101.769 709.109C104.336 708.963 106.8 708.026 108.85 706.417C110.9 704.808 112.443 702.598 113.285 700.067C114.127 697.537 114.23 694.799 113.58 692.201C112.93 689.602 111.557 687.259 109.634 685.468L107.753 687.667C109.257 689.068 110.331 690.901 110.839 692.933C111.348 694.966 111.268 697.107 110.609 699.087C109.951 701.066 108.743 702.794 107.14 704.053C105.537 705.312 103.609 706.044 101.601 706.158C99.5934 706.272 97.5954 705.762 95.8599 704.693C94.1244 703.624 92.7293 702.043 91.8511 700.151C90.9728 698.259 90.6509 696.141 90.926 694.064C91.2011 691.987 92.0608 690.044 93.3965 688.482L91.2788 686.509Z" fill="#383432"/>
<path d="M99.8696 705.739L101.565 709.13L95.4641 713.37L99.8696 705.739Z" fill="#383432"/>
<path d="M100.748 706.877L105.649 715.079L101.117 713.083L96.8542 715.602L100.748 706.877Z" fill="#383432"/>
<path d="M102.13 705.739L106.536 713.37L101 709.13L102.13 705.739Z" fill="#383432"/>
<line x1="98.6739" y1="708.63" x2="103.326" y2="708.63" stroke="#913737" stroke-linecap="round"/>
<line x1="277.027" y1="728.521" x2="285.817" y2="691.552" stroke="#635141" stroke-width="2"/>
<line x1="285.817" y1="691.552" x2="287.668" y2="683.769" stroke="#E3EBEF" stroke-width="2"/>
<line x1="286.817" y1="687.552" x2="288.668" y2="679.769" stroke="#322E2B" stroke-width="2"/>
<ellipse cx="301" cy="695.565" rx="13" ry="13.5652" fill="#F4D9A5"/>
<ellipse cx="301" cy="695.565" rx="10.7391" ry="11.3043" fill="#383432"/>
<path d="M291.418 686.362C289.68 688.333 288.543 690.799 288.151 693.449C287.759 696.099 288.129 698.813 289.215 701.249C290.3 703.685 292.053 705.733 294.251 707.134C296.448 708.534 298.992 709.225 301.561 709.119C304.13 709.012 306.609 708.113 308.683 706.536C310.757 704.958 312.334 702.772 313.215 700.255C314.095 697.738 314.24 695.002 313.63 692.393C313.02 689.785 311.682 687.421 309.787 685.601L307.873 687.772C309.355 689.195 310.401 691.044 310.878 693.084C311.356 695.124 311.243 697.264 310.554 699.233C309.865 701.202 308.632 702.912 307.009 704.146C305.387 705.38 303.448 706.083 301.439 706.166C299.43 706.25 297.44 705.709 295.721 704.614C294.002 703.518 292.631 701.916 291.782 700.011C290.933 698.106 290.643 695.982 290.95 693.91C291.257 691.837 292.146 689.908 293.506 688.367L291.418 686.362Z" fill="#383432"/>
<path d="M299.413 705.607L301.495 708.776L295.932 713.701L299.413 705.607Z" fill="#383432"/>
<path d="M300.457 706.904L305.912 714.749L301.253 713.071L297.174 715.877L300.457 706.904Z" fill="#383432"/>
<path d="M301.883 705.855L306.781 713.179L300.978 709.314L301.883 705.855Z" fill="#383432"/>
<line x1="298.674" y1="708.63" x2="303.326" y2="708.63" stroke="#913737" stroke-linecap="round"/>
<line x1="1885.06" y1="726.091" x2="1885.84" y2="688.099" stroke="#635141" stroke-width="2"/>
<line x1="1885.84" y1="688.099" x2="1886.01" y2="680.1" stroke="#E3EBEF" stroke-width="2"/>
<line x1="1885.97" y1="683.978" x2="1886.14" y2="675.979" stroke="#322E2B" stroke-width="2"/>
<ellipse cx="1901" cy="695.565" rx="13" ry="13.5652" fill="#F4D9A5"/>
<ellipse cx="1901" cy="695.565" rx="10.7391" ry="11.3043" fill="#383432"/>
<path d="M1891.42 686.362C1889.68 688.333 1888.54 690.799 1888.15 693.449C1887.76 696.099 1888.13 698.813 1889.21 701.249C1890.3 703.685 1892.05 705.733 1894.25 707.134C1896.45 708.534 1898.99 709.225 1901.56 709.119C1904.13 709.012 1906.61 708.113 1908.68 706.536C1910.76 704.958 1912.33 702.772 1913.22 700.255C1914.1 697.738 1914.24 695.002 1913.63 692.393C1913.02 689.785 1911.68 687.421 1909.79 685.601L1907.87 687.772C1909.36 689.195 1910.4 691.044 1910.88 693.084C1911.36 695.124 1911.24 697.264 1910.55 699.233C1909.87 701.202 1908.63 702.912 1907.01 704.146C1905.39 705.38 1903.45 706.083 1901.44 706.166C1899.43 706.25 1897.44 705.709 1895.72 704.614C1894 703.518 1892.63 701.916 1891.78 700.011C1890.93 698.106 1890.64 695.982 1890.95 693.91C1891.26 691.837 1892.15 689.908 1893.51 688.367L1891.42 686.362Z" fill="#383432"/>
<path d="M1899.41 705.607L1901.49 708.776L1895.93 713.701L1899.41 705.607Z" fill="#383432"/>
<path d="M1900.46 706.904L1905.91 714.749L1901.25 713.071L1897.17 715.877L1900.46 706.904Z" fill="#383432"/>
<path d="M1901.88 705.855L1906.78 713.179L1900.98 709.314L1901.88 705.855Z" fill="#383432"/>
<line x1="1898.67" y1="708.63" x2="1903.33" y2="708.63" stroke="#913737" stroke-linecap="round"/>
<path d="M469.443 691.879L455.734 684.311L484.214 686.681L469.443 691.879Z" fill="#D9D9D9" fill-opacity="0.3"/>
<path d="M473.268 693.988L459.69 684.838L488.171 687.208L473.268 693.988Z" fill="#D9D9D9" fill-opacity="0.3"/>
<line x1="455.084" y1="683.004" x2="492.949" y2="686.206" stroke="#E3EBEF" stroke-width="2"/>
<line x1="477.034" y1="728.446" x2="486.869" y2="691.741" stroke="#635141" stroke-width="2"/>
<line x1="492.949" y1="686.206" x2="500.921" y2="686.88" stroke="#322E2B" stroke-width="2"/>
<ellipse cx="501" cy="695.565" rx="13" ry="13.5652" fill="#F4D9A5"/>
<ellipse cx="501" cy="695.565" rx="10.7391" ry="11.3043" fill="#383432"/>
<path d="M492.287 685.536C490.378 687.342 489.024 689.696 488.394 692.299C487.765 694.903 487.889 697.64 488.75 700.164C489.612 702.688 491.173 704.885 493.235 706.478C495.298 708.071 497.77 708.989 500.338 709.114C502.906 709.24 505.455 708.568 507.663 707.183C509.871 705.799 511.639 703.764 512.743 701.337C513.846 698.909 514.237 696.197 513.864 693.544C513.492 690.892 512.373 688.417 510.65 686.433L508.548 688.423C509.895 689.974 510.77 691.91 511.062 693.985C511.353 696.059 511.048 698.18 510.185 700.079C509.321 701.978 507.939 703.57 506.212 704.653C504.485 705.735 502.491 706.261 500.482 706.163C498.473 706.065 496.54 705.347 494.927 704.101C493.314 702.855 492.093 701.136 491.419 699.162C490.745 697.188 490.648 695.047 491.14 693.011C491.632 690.974 492.692 689.133 494.185 687.721L492.287 685.536Z" fill="#383432"/>
<path d="M499.289 705.58L501.469 708.683L496.064 713.78L499.289 705.58Z" fill="#383432"/>
<path d="M500.897 706.871L505.507 715.239L501.048 713.086L496.699 715.454L500.897 706.871Z" fill="#383432"/>
<path d="M501.701 705.954L506.957 713.025L500.969 709.453L501.701 705.954Z" fill="#383432"/>
<line x1="498.674" y1="708.63" x2="503.326" y2="708.63" stroke="#913737" stroke-linecap="round"/>
<path d="M685.152 665.307L697.615 643.489L709.965 669.262L685.152 665.307Z" fill="#D9D9D9" fill-opacity="0.3"/>
<path d="M682.855 671.754L699.5 647.932L711.851 673.704L682.855 671.754Z" fill="#D9D9D9" fill-opacity="0.3"/>
<path d="M679.235 679.53L701.349 653.087L713.699 678.86L679.235 679.53Z" fill="#D9D9D9" fill-opacity="0.3"/>
<line x1="697.967" y1="642.712" x2="714.619" y2="676.869" stroke="#E3EBEF" stroke-width="2"/>
<line x1="714.619" y1="676.869" x2="718.125" y2="684.06" stroke="#322E2B" stroke-width="2"/>
<line x1="686.768" y1="688.099" x2="682.995" y2="725.911" stroke="#635141" stroke-width="2"/>
<ellipse cx="701" cy="695.565" rx="13" ry="13.5652" fill="#F4D9A5"/>
<ellipse cx="701" cy="695.565" rx="10.7391" ry="11.3043" fill="#383432"/>
<path d="M692.786 685.123C690.792 686.833 689.324 689.118 688.568 691.688C687.813 694.258 687.803 696.998 688.54 699.561C689.278 702.124 690.73 704.395 692.712 706.086C694.694 707.778 697.118 708.815 699.677 709.066C702.236 709.316 704.815 708.77 707.088 707.495C709.361 706.22 711.226 704.274 712.447 701.903C713.668 699.532 714.19 696.842 713.947 694.174C713.705 691.507 712.708 688.98 711.084 686.915L708.887 688.799C710.158 690.415 710.937 692.391 711.127 694.477C711.317 696.564 710.908 698.668 709.953 700.522C708.998 702.377 707.54 703.899 705.762 704.896C703.984 705.893 701.967 706.321 699.965 706.125C697.964 705.929 696.068 705.118 694.518 703.794C692.967 702.471 691.832 700.695 691.255 698.69C690.678 696.686 690.685 694.543 691.276 692.533C691.868 690.523 693.016 688.736 694.576 687.397L692.786 685.123Z" fill="#383432"/>
<path d="M699.289 705.58L701.468 708.683L696.064 713.78L699.289 705.58Z" fill="#383432"/>
<path d="M700.897 706.871L705.507 715.239L701.048 713.086L696.699 715.454L700.897 706.871Z" fill="#383432"/>
<path d="M701.701 705.954L706.957 713.025L700.969 709.453L701.701 705.954Z" fill="#383432"/>
<line x1="698.674" y1="708.63" x2="703.326" y2="708.63" stroke="#913737" stroke-linecap="round"/>
<path d="M918.561 654.121L943.687 654.345L927.225 677.707L918.561 654.121Z" fill="#D9D9D9" fill-opacity="0.5"/>
<path d="M903 655.5L940.731 658.16L924.269 681.521L903 655.5Z" fill="#D9D9D9" fill-opacity="0.5"/>
<path d="M884.849 659.614L940 659.614L922.5 683.5L884.849 659.614Z" fill="#D9D9D9" fill-opacity="0.5"/>
<line x1="944.538" y1="654.273" x2="922.858" y2="685.482" stroke="#E3EBEF" stroke-width="2"/>
<line x1="922.858" y1="685.482" x2="918.294" y2="692.052" stroke="#322E2B" stroke-width="2"/>
<line x1="885.701" y1="688.133" x2="882.759" y2="726.019" stroke="#635141" stroke-width="2"/>
<ellipse cx="901" cy="695.565" rx="13" ry="13.5652" fill="#F4D9A5"/>
<ellipse cx="901" cy="695.565" rx="10.7391" ry="11.3043" fill="#383432"/>
<path d="M894.425 684.021C892.199 685.417 890.409 687.459 889.28 689.889C888.152 692.318 887.736 695.026 888.086 697.67C888.436 700.314 889.535 702.775 891.245 704.742C892.954 706.709 895.198 708.094 897.691 708.721C900.185 709.348 902.816 709.189 905.253 708.265C907.69 707.341 909.823 705.693 911.381 703.529C912.94 701.365 913.855 698.783 914.011 696.109C914.166 693.434 913.555 690.788 912.254 688.505L909.803 690.043C910.82 691.829 911.298 693.899 911.176 695.99C911.055 698.082 910.339 700.102 909.12 701.794C907.901 703.487 906.233 704.776 904.327 705.499C902.421 706.222 900.362 706.345 898.412 705.855C896.462 705.364 894.707 704.281 893.37 702.743C892.032 701.204 891.173 699.279 890.899 697.212C890.626 695.144 890.951 693.026 891.833 691.125C892.716 689.225 894.116 687.628 895.857 686.536L894.425 684.021Z" fill="#383432"/>
<path d="M899.289 705.58L901.469 708.683L896.064 713.78L899.289 705.58Z" fill="#383432"/>
<path d="M900.897 706.871L905.507 715.239L901.048 713.086L896.699 715.454L900.897 706.871Z" fill="#383432"/>
<path d="M901.701 705.954L906.958 713.025L900.97 709.453L901.701 705.954Z" fill="#383432"/>
<line x1="898.674" y1="708.63" x2="903.326" y2="708.63" stroke="#913737" stroke-linecap="round"/>
<path d="M1142.41 669.692L1161.45 686.086L1133.8 693.297L1142.41 669.692Z" fill="#D9D9D9" fill-opacity="0.3"/>
<path d="M1122.5 662.5L1156.73 687.09L1129.08 694.301L1122.5 662.5Z" fill="#D9D9D9" fill-opacity="0.3"/>
<path d="M1108 661.5L1151.32 687.922L1123.66 695.133L1108 661.5Z" fill="#D9D9D9" fill-opacity="0.3"/>
<line x1="1162.15" y1="686.58" x2="1125.44" y2="696.415" stroke="#E3EBEF" stroke-width="2"/>
<line x1="1125.44" y1="696.415" x2="1117.72" y2="698.485" stroke="#322E2B" stroke-width="2"/>
<line x1="1085.77" y1="688.034" x2="1084.7" y2="726.019" stroke="#635141" stroke-width="2"/>
<ellipse cx="1101" cy="695.565" rx="13" ry="13.5652" fill="#F4D9A5"/>
<ellipse cx="1101" cy="695.565" rx="10.7391" ry="11.3043" fill="#383432"/>
<path d="M1092.94 685.005C1090.92 686.686 1089.42 688.95 1088.63 691.508C1087.83 694.067 1087.78 696.806 1088.48 699.379C1089.18 701.953 1090.6 704.245 1092.56 705.965C1094.52 707.686 1096.93 708.757 1099.48 709.045C1102.04 709.333 1104.62 708.824 1106.91 707.582C1109.21 706.34 1111.1 704.421 1112.35 702.068C1113.61 699.715 1114.17 697.034 1113.97 694.363C1113.76 691.692 1112.8 689.151 1111.21 687.062L1108.98 688.915C1110.23 690.548 1110.98 692.535 1111.14 694.625C1111.3 696.714 1110.86 698.811 1109.88 700.652C1108.9 702.492 1107.42 703.993 1105.63 704.964C1103.83 705.936 1101.81 706.334 1099.81 706.109C1097.81 705.884 1095.93 705.045 1094.4 703.7C1092.87 702.354 1091.76 700.561 1091.21 698.549C1090.66 696.536 1090.7 694.393 1091.32 692.392C1091.94 690.391 1093.12 688.62 1094.69 687.305L1092.94 685.005Z" fill="#383432"/>
<path d="M1099.29 705.58L1101.47 708.683L1096.06 713.78L1099.29 705.58Z" fill="#383432"/>
<path d="M1100.9 706.871L1105.51 715.239L1101.05 713.086L1096.7 715.454L1100.9 706.871Z" fill="#383432"/>
<path d="M1101.7 705.954L1106.96 713.025L1100.97 709.453L1101.7 705.954Z" fill="#383432"/>
<line x1="1098.67" y1="708.63" x2="1103.33" y2="708.63" stroke="#913737" stroke-linecap="round"/>
<path d="M1343.44 673.652L1361.71 687.075L1334.06 694.287L1343.44 673.652Z" fill="#D9D9D9" fill-opacity="0.3"/>
<path d="M1328.63 686.026L1356.73 687.09L1329.08 694.301L1328.63 686.026Z" fill="#D9D9D9" fill-opacity="0.3"/>
<line x1="1362.15" y1="686.58" x2="1325.44" y2="696.415" stroke="#E3EBEF" stroke-width="2"/>
<line x1="1325.44" y1="696.415" x2="1317.72" y2="698.485" stroke="#322E2B" stroke-width="2"/>
<line x1="1285.77" y1="688.034" x2="1284.7" y2="726.019" stroke="#635141" stroke-width="2"/>
<ellipse cx="1301" cy="695.565" rx="13" ry="13.5652" fill="#F4D9A5"/>
<ellipse cx="1301" cy="695.565" rx="10.7391" ry="11.3043" fill="#383432"/>
<path d="M1292.94 685.005C1290.92 686.686 1289.42 688.95 1288.63 691.508C1287.83 694.067 1287.78 696.806 1288.48 699.379C1289.18 701.953 1290.6 704.245 1292.56 705.965C1294.52 707.685 1296.93 708.757 1299.48 709.045C1302.04 709.333 1304.62 708.824 1306.91 707.582C1309.21 706.34 1311.1 704.421 1312.35 702.068C1313.61 699.715 1314.17 697.034 1313.97 694.363C1313.76 691.692 1312.8 689.151 1311.21 687.062L1308.98 688.915C1310.23 690.548 1310.98 692.535 1311.14 694.625C1311.3 696.714 1310.86 698.811 1309.88 700.652C1308.9 702.492 1307.42 703.993 1305.63 704.964C1303.83 705.936 1301.81 706.334 1299.81 706.109C1297.81 705.884 1295.93 705.045 1294.4 703.7C1292.87 702.354 1291.76 700.561 1291.21 698.549C1290.66 696.536 1290.7 694.393 1291.32 692.392C1291.94 690.391 1293.12 688.62 1294.69 687.305L1292.94 685.005Z" fill="#383432"/>
<path d="M1299.29 705.58L1301.47 708.683L1296.06 713.78L1299.29 705.58Z" fill="#383432"/>
<path d="M1300.9 706.871L1305.51 715.239L1301.05 713.086L1296.7 715.454L1300.9 706.871Z" fill="#383432"/>
<path d="M1301.7 705.954L1306.96 713.025L1300.97 709.453L1301.7 705.954Z" fill="#383432"/>
<line x1="1298.67" y1="708.63" x2="1303.33" y2="708.63" stroke="#913737" stroke-linecap="round"/>
<path d="M1518.45 679.641L1514.13 666.323L1511.45 691.771L1518.45 679.641Z" fill="#D9D9D9" fill-opacity="0.3"/>
<line x1="1513.55" y1="666.098" x2="1509.84" y2="703.916" stroke="#E3EBEF" stroke-width="2"/>
<line x1="1509.84" y1="703.915" x2="1509.05" y2="711.877" stroke="#322E2B" stroke-width="2"/>
<line x1="1485.35" y1="687.005" x2="1485.11" y2="725.004" stroke="#635141" stroke-width="2"/>
<ellipse cx="1501" cy="695.565" rx="13" ry="13.5652" fill="#F4D9A5"/>
<ellipse cx="1501" cy="695.565" rx="10.7391" ry="11.3043" fill="#383432"/>
<path d="M1492.61 685.262C1490.65 687.006 1489.22 689.315 1488.51 691.897C1487.79 694.48 1487.83 697.219 1488.61 699.769C1489.39 702.319 1490.88 704.565 1492.89 706.224C1494.9 707.882 1497.34 708.878 1499.9 709.086C1502.47 709.294 1505.04 708.704 1507.29 707.391C1509.54 706.078 1511.37 704.101 1512.55 701.71C1513.73 699.319 1514.21 696.621 1513.92 693.958C1513.63 691.294 1512.6 688.785 1510.94 686.747L1508.77 688.668C1510.07 690.262 1510.88 692.225 1511.11 694.308C1511.33 696.391 1510.96 698.501 1510.04 700.371C1509.11 702.242 1507.68 703.788 1505.92 704.815C1504.16 705.842 1502.15 706.303 1500.14 706.141C1498.14 705.978 1496.23 705.199 1494.66 703.902C1493.08 702.605 1491.92 700.848 1491.31 698.853C1490.7 696.859 1490.67 694.716 1491.23 692.696C1491.78 690.677 1492.9 688.87 1494.44 687.506L1492.61 685.262Z" fill="#383432"/>
<path d="M1499.29 705.58L1501.47 708.683L1496.06 713.78L1499.29 705.58Z" fill="#383432"/>
<path d="M1500.9 706.871L1505.51 715.239L1501.05 713.086L1496.7 715.454L1500.9 706.871Z" fill="#383432"/>
<path d="M1501.7 705.954L1506.96 713.025L1500.97 709.453L1501.7 705.954Z" fill="#383432"/>
<line x1="1498.67" y1="708.63" x2="1503.33" y2="708.63" stroke="#913737" stroke-linecap="round"/>
<line x1="1664.72" y1="694.07" x2="1701.16" y2="683.307" stroke="#E3EBEF" stroke-width="2"/>
<line x1="1701.16" y1="683.307" x2="1708.83" y2="681.041" stroke="#322E2B" stroke-width="2"/>
<line x1="1686.03" y1="688.058" x2="1684.43" y2="726.024" stroke="#635141" stroke-width="2"/>
<ellipse cx="1701" cy="695.565" rx="13" ry="13.5652" fill="#F4D9A5"/>
<ellipse cx="1701" cy="695.565" rx="10.7391" ry="11.3043" fill="#383432"/>
<path d="M1691.73 686.049C1689.93 687.961 1688.71 690.388 1688.23 693.023C1687.75 695.659 1688.03 698.384 1689.03 700.854C1690.04 703.325 1691.72 705.43 1693.87 706.903C1696.02 708.376 1698.54 709.151 1701.11 709.13C1703.68 709.109 1706.19 708.293 1708.31 706.785C1710.44 705.277 1712.09 703.145 1713.05 700.658C1714.02 698.171 1714.25 695.442 1713.73 692.815C1713.21 690.187 1711.95 687.781 1710.11 685.898L1708.13 688.004C1709.56 689.476 1710.55 691.359 1710.96 693.414C1711.36 695.469 1711.18 697.604 1710.43 699.549C1709.67 701.494 1708.38 703.161 1706.72 704.341C1705.06 705.52 1703.1 706.159 1701.09 706.175C1699.08 706.192 1697.1 705.585 1695.42 704.433C1693.74 703.281 1692.42 701.635 1691.64 699.702C1690.85 697.77 1690.64 695.638 1691.01 693.577C1691.39 691.516 1692.34 689.617 1693.75 688.122L1691.73 686.049Z" fill="#383432"/>
<path d="M1699.29 705.58L1701.47 708.683L1696.06 713.78L1699.29 705.58Z" fill="#383432"/>
<path d="M1700.9 706.871L1705.51 715.239L1701.05 713.086L1696.7 715.454L1700.9 706.871Z" fill="#383432"/>
<path d="M1701.7 705.954L1706.96 713.025L1700.97 709.453L1701.7 705.954Z" fill="#383432"/>
<line x1="1698.67" y1="708.63" x2="1703.33" y2="708.63" stroke="#913737" stroke-linecap="round"/>
<g filter="url(#filter0_d_50_250)">
<ellipse cx="100.95" cy="496.553" rx="13.9111" ry="14.516" fill="#F4D9A5"/>
<ellipse cx="100.95" cy="496.553" rx="11.4918" ry="12.0966" fill="#383432"/>
<path d="M90.6966 486.704C88.8368 488.813 87.6201 491.452 87.2003 494.288C86.7805 497.124 87.1766 500.028 88.3384 502.635C89.5002 505.242 91.3755 507.433 93.7272 508.932C96.0789 510.431 98.8014 511.17 101.55 511.056C104.299 510.942 106.951 509.981 109.171 508.292C111.391 506.604 113.079 504.265 114.021 501.571C114.963 498.877 115.117 495.95 114.465 493.159C113.812 490.367 112.381 487.838 110.353 485.89L108.305 488.213C109.891 489.736 111.01 491.715 111.52 493.898C112.031 496.081 111.91 498.371 111.173 500.478C110.436 502.585 109.116 504.414 107.38 505.735C105.644 507.055 103.57 507.808 101.42 507.897C99.2694 507.986 97.14 507.408 95.3005 506.235C93.4611 505.063 91.9943 503.349 91.0856 501.31C90.1769 499.271 89.8671 496.999 90.1954 494.781C90.5238 492.563 91.4754 490.499 92.9301 488.85L90.6966 486.704Z" fill="#383432"/>
<path d="M99.2518 507.298L101.479 510.69L95.5265 515.959L99.2518 507.298Z" fill="#383432"/>
<path d="M100.369 508.687L106.206 517.081L101.221 515.285L96.8553 518.288L100.369 508.687Z" fill="#383432"/>
<path d="M101.894 507.564L107.136 515.401L100.926 511.265L101.894 507.564Z" fill="#383432"/>
<line x1="98.4255" y1="510.569" x2="103.474" y2="510.569" stroke="#913737" stroke-linecap="round"/>
<line x1="85.4339" y1="525.015" x2="84.7173" y2="487.022" stroke="#635141" stroke-width="2"/>
<line x1="84.7173" y1="487.022" x2="84.5665" y2="479.023" stroke="#322E2B" stroke-width="2"/>
</g>
<g filter="url(#filter1_d_50_250)">
<ellipse cx="300.95" cy="496.553" rx="13.9111" ry="14.516" fill="#F4D9A5"/>
<ellipse cx="300.95" cy="496.553" rx="11.4918" ry="12.0966" fill="#383432"/>
<path d="M291 486.398C289.077 488.45 287.781 491.051 287.275 493.872C286.77 496.694 287.078 499.609 288.16 502.25C289.242 504.89 291.05 507.138 293.355 508.707C295.66 510.277 298.359 511.098 301.11 511.068C303.862 511.037 306.541 510.156 308.811 508.536C311.081 506.916 312.839 504.629 313.863 501.965C314.886 499.301 315.129 496.38 314.561 493.57C313.993 490.76 312.64 488.189 310.672 486.18L308.554 488.44C310.093 490.011 311.152 492.022 311.596 494.22C312.04 496.417 311.85 498.703 311.05 500.786C310.249 502.87 308.874 504.658 307.099 505.926C305.323 507.193 303.227 507.882 301.075 507.906C298.923 507.93 296.813 507.287 295.009 506.06C293.206 504.832 291.792 503.074 290.946 501.009C290.099 498.943 289.859 496.663 290.254 494.456C290.65 492.249 291.663 490.215 293.167 488.61L291 486.398Z" fill="#383432"/>
<path d="M299.252 507.298L301.479 510.69L295.526 515.959L299.252 507.298Z" fill="#383432"/>
<path d="M300.369 508.687L306.206 517.081L301.221 515.285L296.855 518.288L300.369 508.687Z" fill="#383432"/>
<path d="M301.894 507.564L307.136 515.401L300.926 511.265L301.894 507.564Z" fill="#383432"/>
<line x1="298.425" y1="510.569" x2="303.474" y2="510.569" stroke="#913737" stroke-linecap="round"/>
<line x1="285.434" y1="525.015" x2="284.717" y2="487.022" stroke="#635141" stroke-width="2"/>
<line x1="284.717" y1="487.022" x2="284.566" y2="479.023" stroke="#322E2B" stroke-width="2"/>
</g>
<g filter="url(#filter2_d_50_250)">
<line x1="485" y1="522.473" x2="485.818" y2="484.482" stroke="#635141" stroke-width="2"/>
<line x1="485.818" y1="484.482" x2="485.99" y2="476.484" stroke="#322E2B" stroke-width="2"/>
<ellipse cx="500.378" cy="496.467" rx="13" ry="13.5652" fill="#F4D9A5"/>
<ellipse cx="500.378" cy="496.467" rx="10.7391" ry="11.3043" fill="#383432"/>
<path d="M490.911 487.146C489.149 489.095 487.981 491.547 487.556 494.192C487.131 496.837 487.468 499.555 488.523 502.005C489.579 504.454 491.306 506.523 493.486 507.951C495.667 509.379 498.202 510.101 500.772 510.026C503.342 509.952 505.831 509.083 507.925 507.531C510.019 505.979 511.623 503.813 512.534 501.307C513.446 498.801 513.624 496.067 513.046 493.451C512.468 490.835 511.16 488.455 509.288 486.612L507.347 488.758C508.812 490.2 509.835 492.062 510.286 494.108C510.738 496.154 510.599 498.292 509.886 500.252C509.173 502.213 507.919 503.907 506.281 505.121C504.643 506.335 502.696 507.014 500.686 507.072C498.676 507.131 496.693 506.566 494.988 505.449C493.282 504.332 491.931 502.714 491.106 500.798C490.28 498.883 490.017 496.756 490.349 494.687C490.682 492.619 491.595 490.701 492.973 489.176L490.911 487.146Z" fill="#383432"/>
<path d="M499.248 506.641L500.943 510.032L494.842 514.271L499.248 506.641Z" fill="#383432"/>
<path d="M500.596 507.777L504.56 516.47L500.276 513.986L495.76 516.017L500.596 507.777Z" fill="#383432"/>
<path d="M501.509 506.641L505.914 514.271L500.378 510.032L501.509 506.641Z" fill="#383432"/>
<line x1="498.052" y1="509.532" x2="502.704" y2="509.532" stroke="#913737" stroke-linecap="round"/>
</g>
<path d="M721 503.5C721 509.299 716.523 514 711 514C705.477 514 701 509.299 701 503.5C701 497.701 705.477 493 711 493C716.523 493 721 497.701 721 503.5Z" fill="#D9D9D9"/>
<g filter="url(#filter3_d_50_250)">
<path d="M726 495.5C726 501.299 721.523 506 716 506C710.477 506 706 501.299 706 495.5C706 489.701 710.477 485 716 485C721.523 485 726 489.701 726 495.5Z" fill="#D9D9D9"/>
</g>
<path d="M716 491.5C716 497.299 711.523 502 706 502C700.477 502 696 497.299 696 491.5C696 485.701 700.477 481 706 481C711.523 481 716 485.701 716 491.5Z" fill="#D9D9D9"/>
<path d="M700 493.5C700 499.299 695.523 504 690 504C684.477 504 680 499.299 680 493.5C680 487.701 684.477 483 690 483C695.523 483 700 487.701 700 493.5Z" fill="#D9D9D9"/>
<path d="M696 503.5C696 509.299 691.523 514 686 514C680.477 514 676 509.299 676 503.5C676 497.701 680.477 493 686 493C691.523 493 696 497.701 696 503.5Z" fill="#D9D9D9"/>
<g filter="url(#filter4_d_50_250)">
<path d="M707 503.5C707 509.299 702.523 514 697 514C691.477 514 687 509.299 687 503.5C687 497.701 691.477 493 697 493C702.523 493 707 497.701 707 503.5Z" fill="#D9D9D9"/>
</g>
<ellipse cx="701" cy="495.565" rx="13" ry="13.5652" fill="#F4D9A5"/>
<ellipse cx="701" cy="495.565" rx="10.7391" ry="11.3043" fill="#383432"/>
<path d="M691.533 486.244C689.771 488.193 688.603 490.645 688.178 493.29C687.753 495.935 688.09 498.654 689.145 501.103C690.201 503.552 691.928 505.621 694.108 507.049C696.289 508.477 698.824 509.199 701.394 509.125C703.964 509.05 706.453 508.182 708.547 506.63C710.641 505.078 712.245 502.912 713.156 500.405C714.068 497.899 714.246 495.165 713.668 492.55C713.09 489.934 711.782 487.554 709.91 485.71L707.969 487.857C709.434 489.299 710.457 491.161 710.908 493.207C711.36 495.252 711.221 497.391 710.508 499.351C709.795 501.311 708.541 503.006 706.903 504.219C705.265 505.433 703.318 506.113 701.308 506.171C699.298 506.229 697.315 505.664 695.61 504.548C693.904 503.431 692.553 501.812 691.728 499.897C690.902 497.981 690.639 495.855 690.971 493.786C691.304 491.717 692.217 489.799 693.595 488.275L691.533 486.244Z" fill="#383432"/>
<path d="M699.87 505.739L701.565 509.13L695.464 513.37L699.87 505.739Z" fill="#383432"/>
<path d="M701.218 506.875L705.182 515.569L700.898 513.084L696.382 515.116L701.218 506.875Z" fill="#383432"/>
<path d="M702.131 505.739L706.536 513.37L701 509.13L702.131 505.739Z" fill="#383432"/>
<line x1="698.674" y1="508.63" x2="703.326" y2="508.63" stroke="#913737" stroke-linecap="round"/>
<line x1="685.505" y1="523.973" x2="686.323" y2="485.982" stroke="#635141" stroke-width="2"/>
<line x1="686.323" y1="485.982" x2="686.495" y2="477.984" stroke="#322E2B" stroke-width="2"/>
<path d="M916.455 502.727C916.455 507.296 912.927 511 908.576 511C904.224 511 900.697 507.296 900.697 502.727C900.697 498.158 904.224 494.455 908.576 494.455C912.927 494.455 916.455 498.158 916.455 502.727Z" fill="#D9D9D9" fill-opacity="0.5"/>
<g filter="url(#filter5_d_50_250)">
<path d="M920.394 496.424C920.394 500.993 916.866 504.697 912.515 504.697C908.164 504.697 904.636 500.993 904.636 496.424C904.636 491.855 908.164 488.152 912.515 488.152C916.866 488.152 920.394 491.855 920.394 496.424Z" fill="#D9D9D9" fill-opacity="0.5" shape-rendering="crispEdges"/>
</g>
<path d="M912.515 493.273C912.515 497.842 908.988 501.545 904.636 501.545C900.285 501.545 896.758 497.842 896.758 493.273C896.758 488.704 900.285 485 904.636 485C908.988 485 912.515 488.704 912.515 493.273Z" fill="#D9D9D9" fill-opacity="0.5"/>
<path d="M899.909 494.848C899.909 499.417 896.382 503.121 892.03 503.121C887.679 503.121 884.152 499.417 884.152 494.848C884.152 490.28 887.679 486.576 892.03 486.576C896.382 486.576 899.909 490.28 899.909 494.848Z" fill="#D9D9D9" fill-opacity="0.5"/>
<path d="M896.758 502.727C896.758 507.296 893.23 511 888.879 511C884.527 511 881 507.296 881 502.727C881 498.158 884.527 494.455 888.879 494.455C893.23 494.455 896.758 498.158 896.758 502.727Z" fill="#D9D9D9" fill-opacity="0.5"/>
<g filter="url(#filter6_d_50_250)">
<path d="M905.424 502.727C905.424 507.296 901.897 511 897.545 511C893.194 511 889.667 507.296 889.667 502.727C889.667 498.158 893.194 494.455 897.545 494.455C901.897 494.455 905.424 498.158 905.424 502.727Z" fill="#D9D9D9" fill-opacity="0.5" shape-rendering="crispEdges"/>
</g>
<ellipse cx="901" cy="495.565" rx="13" ry="13.5652" fill="#F4D9A5"/>
<ellipse cx="901" cy="495.565" rx="10.7391" ry="11.3043" fill="#383432"/>
<path d="M891.808 485.973C889.99 487.87 888.751 490.287 888.25 492.919C887.748 495.55 888.006 498.278 888.99 500.756C889.974 503.235 891.64 505.354 893.778 506.844C895.915 508.335 898.429 509.13 901 509.13C903.571 509.13 906.085 508.335 908.222 506.844C910.36 505.354 912.026 503.235 913.01 500.756C913.994 498.278 914.252 495.55 913.75 492.919C913.249 490.287 912.01 487.87 910.192 485.973L908.19 488.063C909.612 489.547 910.58 491.437 910.973 493.495C911.365 495.553 911.164 497.687 910.394 499.626C909.625 501.564 908.321 503.221 906.649 504.387C904.977 505.553 903.011 506.175 901 506.175C898.989 506.175 897.023 505.553 895.351 504.387C893.679 503.221 892.375 501.564 891.606 499.626C890.836 497.687 890.635 495.553 891.027 493.495C891.42 491.437 892.388 489.547 893.81 488.063L891.808 485.973Z" fill="#383432"/>
<path d="M899.87 505.739L901.565 509.13L895.464 513.37L899.87 505.739Z" fill="#383432"/>
<path d="M900.748 506.877L905.65 515.079L901.118 513.083L896.854 515.602L900.748 506.877Z" fill="#383432"/>
<path d="M902.13 505.739L906.536 513.37L901 509.13L902.13 505.739Z" fill="#383432"/>
<line x1="898.674" y1="508.63" x2="903.326" y2="508.63" stroke="#913737" stroke-linecap="round"/>
<line x1="886" y1="523" x2="886" y2="485" stroke="#635141" stroke-width="2"/>
<line x1="886" y1="485" x2="886" y2="477" stroke="#322E2B" stroke-width="2"/>
<ellipse cx="101" cy="295.565" rx="13" ry="13.5652" fill="#F4D9A5"/>
<ellipse cx="101" cy="295.565" rx="10.7391" ry="11.3043" fill="#383432"/>
<path d="M91.2788 286.509C89.5712 288.507 88.472 290.99 88.1203 293.646C87.7686 296.301 88.1802 299.01 89.303 301.429C90.4258 303.848 92.2094 305.868 94.4283 307.235C96.6472 308.602 99.2016 309.254 101.769 309.109C104.336 308.963 106.8 308.026 108.85 306.417C110.9 304.808 112.443 302.598 113.285 300.067C114.127 297.537 114.23 294.799 113.58 292.201C112.93 289.602 111.557 287.259 109.634 285.468L107.753 287.667C109.257 289.068 110.331 290.901 110.839 292.933C111.348 294.966 111.268 297.107 110.609 299.087C109.951 301.066 108.743 302.794 107.14 304.053C105.537 305.312 103.609 306.044 101.601 306.158C99.5934 306.272 97.5954 305.762 95.8599 304.693C94.1244 303.624 92.7293 302.043 91.8511 300.151C90.9728 298.259 90.6509 296.141 90.926 294.064C91.2011 291.987 92.0608 290.044 93.3965 288.482L91.2788 286.509Z" fill="#383432"/>
<path d="M99.8696 305.739L101.565 309.13L95.4641 313.37L99.8696 305.739Z" fill="#383432"/>
<path d="M100.748 306.877L105.649 315.079L101.117 313.083L96.8542 315.602L100.748 306.877Z" fill="#383432"/>
<path d="M102.13 305.739L106.536 313.37L101 309.13L102.13 305.739Z" fill="#383432"/>
<line x1="98.6739" y1="308.63" x2="103.326" y2="308.63" stroke="#913737" stroke-linecap="round"/>
<line x1="85.0535" y1="322.939" x2="86.6187" y2="284.972" stroke="#635141" stroke-width="2"/>
<line x1="86.6187" y1="284.972" x2="86.9482" y2="276.978" stroke="#322E2B" stroke-width="2"/>
<ellipse cx="301" cy="295.565" rx="13" ry="13.5652" fill="#F4D9A5"/>
<ellipse cx="301" cy="295.565" rx="10.7391" ry="11.3043" fill="#383432"/>
<path d="M291.418 286.362C289.68 288.333 288.543 290.799 288.151 293.449C287.759 296.099 288.129 298.813 289.215 301.249C290.3 303.685 292.053 305.733 294.251 307.134C296.448 308.534 298.992 309.225 301.561 309.119C304.13 309.012 306.609 308.113 308.683 306.536C310.757 304.958 312.334 302.772 313.215 300.255C314.095 297.738 314.24 295.002 313.63 292.393C313.02 289.785 311.683 287.421 309.787 285.601L307.873 287.772C309.355 289.195 310.401 291.044 310.878 293.084C311.356 295.124 311.243 297.264 310.554 299.233C309.865 301.202 308.632 302.912 307.009 304.146C305.387 305.38 303.448 306.083 301.439 306.166C299.43 306.25 297.44 305.709 295.721 304.614C294.002 303.518 292.631 301.916 291.782 300.011C290.933 298.106 290.643 295.982 290.95 293.91C291.257 291.837 292.146 289.908 293.506 288.367L291.418 286.362Z" fill="#383432"/>
<path d="M299.413 305.607L301.495 308.776L295.932 313.701L299.413 305.607Z" fill="#383432"/>
<path d="M300.457 306.904L305.912 314.749L301.253 313.071L297.174 315.877L300.457 306.904Z" fill="#383432"/>
<path d="M301.883 305.855L306.781 313.179L300.978 309.314L301.883 305.855Z" fill="#383432"/>
<line x1="298.674" y1="308.63" x2="303.326" y2="308.63" stroke="#913737" stroke-linecap="round"/>
<line x1="285.707" y1="323.985" x2="286.191" y2="285.988" stroke="#635141" stroke-width="2"/>
<line x1="286.191" y1="285.988" x2="286.293" y2="277.989" stroke="#322E2B" stroke-width="2"/>
<ellipse cx="501" cy="295.565" rx="13" ry="13.5652" fill="#F4D9A5"/>
<ellipse cx="501" cy="295.565" rx="10.7391" ry="11.3043" fill="#383432"/>
<path d="M492.287 285.536C490.378 287.342 489.024 289.696 488.394 292.299C487.765 294.903 487.889 297.64 488.75 300.164C489.612 302.688 491.173 304.885 493.236 306.478C495.298 308.071 497.77 308.989 500.338 309.114C502.906 309.24 505.455 308.568 507.663 307.183C509.871 305.799 511.639 303.764 512.743 301.337C513.846 298.909 514.237 296.197 513.864 293.544C513.492 290.892 512.373 288.417 510.65 286.433L508.548 288.423C509.896 289.974 510.77 291.91 511.062 293.985C511.353 296.059 511.048 298.18 510.185 300.079C509.321 301.978 507.939 303.57 506.212 304.653C504.485 305.735 502.491 306.261 500.482 306.163C498.473 306.065 496.54 305.347 494.927 304.101C493.314 302.855 492.093 301.136 491.419 299.162C490.745 297.188 490.648 295.047 491.14 293.011C491.633 290.974 492.692 289.133 494.185 287.721L492.287 285.536Z" fill="#383432"/>
<path d="M499.289 305.58L501.469 308.683L496.064 313.78L499.289 305.58Z" fill="#383432"/>
<path d="M500.897 306.871L505.507 315.239L501.048 313.086L496.699 315.454L500.897 306.871Z" fill="#383432"/>
<path d="M501.701 305.954L506.958 313.025L500.97 309.453L501.701 305.954Z" fill="#383432"/>
<line x1="498.674" y1="308.63" x2="503.326" y2="308.63" stroke="#913737" stroke-linecap="round"/>
<line x1="486.977" y1="325.022" x2="485.364" y2="287.056" stroke="#635141" stroke-width="2"/>
<line x1="485.364" y1="287.056" x2="485.025" y2="279.063" stroke="#322E2B" stroke-width="2"/>
<ellipse cx="701" cy="295.565" rx="13" ry="13.5652" fill="#F4D9A5"/>
<ellipse cx="701" cy="295.565" rx="10.7391" ry="11.3043" fill="#383432"/>
<path d="M691.533 286.244C689.771 288.193 688.603 290.645 688.178 293.29C687.753 295.935 688.09 298.654 689.145 301.103C690.201 303.552 691.928 305.621 694.108 307.049C696.289 308.477 698.824 309.199 701.394 309.125C703.964 309.05 706.453 308.182 708.547 306.63C710.641 305.078 712.245 302.912 713.156 300.405C714.068 297.899 714.246 295.165 713.668 292.55C713.09 289.934 711.782 287.554 709.91 285.71L707.969 287.857C709.434 289.299 710.457 291.161 710.908 293.207C711.36 295.252 711.221 297.391 710.508 299.351C709.795 301.311 708.541 303.006 706.903 304.219C705.265 305.433 703.318 306.113 701.308 306.171C699.298 306.229 697.315 305.664 695.61 304.548C693.904 303.431 692.553 301.812 691.728 299.897C690.902 297.981 690.639 295.855 690.971 293.786C691.304 291.717 692.217 289.799 693.595 288.275L691.533 286.244Z" fill="#383432"/>
<path d="M699.87 305.739L701.565 309.13L695.464 313.37L699.87 305.739Z" fill="#383432"/>
<path d="M701.218 306.875L705.182 315.569L700.898 313.084L696.382 315.116L701.218 306.875Z" fill="#383432"/>
<path d="M702.131 305.739L706.536 313.37L701 309.13L702.131 305.739Z" fill="#383432"/>
<line x1="698.674" y1="308.63" x2="703.326" y2="308.63" stroke="#913737" stroke-linecap="round"/>
<line x1="685.505" y1="323.973" x2="686.323" y2="285.982" stroke="#635141" stroke-width="2"/>
<line x1="686.323" y1="285.982" x2="686.495" y2="277.984" stroke="#322E2B" stroke-width="2"/>
<ellipse cx="101" cy="95.5652" rx="13" ry="13.5652" fill="#F4D9A5"/>
<ellipse cx="101" cy="95.5652" rx="10.7391" ry="11.3043" fill="#383432"/>
<path d="M91.8076 85.9732C89.9895 87.8703 88.7514 90.2874 88.2498 92.9188C87.7482 95.5502 88.0056 98.2777 88.9896 100.756C89.9735 103.235 91.6397 105.354 93.7776 106.844C95.9154 108.335 98.4288 109.13 101 109.13C103.571 109.13 106.085 108.335 108.222 106.844C110.36 105.354 112.026 103.235 113.01 100.756C113.994 98.2777 114.252 95.5502 113.75 92.9188C113.249 90.2874 112.01 87.8703 110.192 85.9732L108.19 88.0627C109.612 89.5465 110.58 91.4371 110.973 93.4953C111.365 95.5534 111.164 97.6868 110.394 99.6256C109.625 101.564 108.321 103.221 106.649 104.387C104.977 105.553 103.011 106.175 101 106.175C98.9889 106.175 97.023 105.553 95.3509 104.387C93.6788 103.221 92.3755 101.564 91.6059 99.6256C90.8363 97.6868 90.6349 95.5534 91.0273 93.4953C91.4196 91.4371 92.388 89.5465 93.8101 88.0627L91.8076 85.9732Z" fill="#383432"/>
<path d="M99.8696 105.739L101.565 109.13L95.4641 113.37L99.8696 105.739Z" fill="#383432"/>
<path d="M100.748 106.877L105.65 115.079L101.118 113.083L96.8542 115.602L100.748 106.877Z" fill="#383432"/>
<path d="M102.13 105.739L106.536 113.37L101 109.13L102.13 105.739Z" fill="#383432"/>
<line x1="98.6739" y1="108.63" x2="103.326" y2="108.63" stroke="#913737" stroke-linecap="round"/>
<line x1="86" y1="123" x2="86" y2="85" stroke="#635141" stroke-width="2"/>
<line x1="86" y1="85" x2="86" y2="77" stroke="#322E2B" stroke-width="2"/>
<ellipse cx="301" cy="95.5652" rx="13" ry="13.5652" fill="#F4D9A5"/>
<ellipse cx="301" cy="95.5652" rx="10.7391" ry="11.3043" fill="#383432"/>
<path d="M291.808 85.9732C289.99 87.8703 288.751 90.2874 288.25 92.9188C287.748 95.5502 288.006 98.2777 288.99 100.756C289.974 103.235 291.64 105.354 293.778 106.844C295.915 108.335 298.429 109.13 301 109.13C303.571 109.13 306.085 108.335 308.222 106.844C310.36 105.354 312.026 103.235 313.01 100.756C313.994 98.2777 314.252 95.5502 313.75 92.9188C313.249 90.2874 312.01 87.8703 310.192 85.9732L308.19 88.0627C309.612 89.5465 310.58 91.4371 310.973 93.4953C311.365 95.5534 311.164 97.6868 310.394 99.6256C309.625 101.564 308.321 103.221 306.649 104.387C304.977 105.553 303.011 106.175 301 106.175C298.989 106.175 297.023 105.553 295.351 104.387C293.679 103.221 292.375 101.564 291.606 99.6256C290.836 97.6868 290.635 95.5534 291.027 93.4953C291.42 91.4371 292.388 89.5465 293.81 88.0627L291.808 85.9732Z" fill="#383432"/>
<path d="M299.413 105.607L301.495 108.776L295.932 113.701L299.413 105.607Z" fill="#383432"/>
<path d="M300.457 106.904L305.912 114.749L301.253 113.071L297.174 115.877L300.457 106.904Z" fill="#383432"/>
<path d="M301.883 105.855L306.781 113.179L300.978 109.314L301.883 105.855Z" fill="#383432"/>
<line x1="298.674" y1="108.63" x2="303.326" y2="108.63" stroke="#913737" stroke-linecap="round"/>
<line x1="286" y1="124" x2="286" y2="86" stroke="#635141" stroke-width="2"/>
<line x1="286" y1="86" x2="286" y2="78" stroke="#322E2B" stroke-width="2"/>
<ellipse cx="501" cy="95.5652" rx="13" ry="13.5652" fill="#F4D9A5"/>
<ellipse cx="501" cy="95.5652" rx="10.7391" ry="11.3043" fill="#383432"/>
<path d="M491.808 85.9732C489.99 87.8703 488.751 90.2874 488.25 92.9188C487.748 95.5502 488.006 98.2777 488.99 100.756C489.974 103.235 491.64 105.354 493.778 106.844C495.915 108.335 498.429 109.13 501 109.13C503.571 109.13 506.085 108.335 508.222 106.844C510.36 105.354 512.026 103.235 513.01 100.756C513.994 98.2777 514.252 95.5502 513.75 92.9188C513.249 90.2874 512.01 87.8703 510.192 85.9732L508.19 88.0627C509.612 89.5465 510.58 91.4371 510.973 93.4953C511.365 95.5534 511.164 97.6868 510.394 99.6256C509.625 101.564 508.321 103.221 506.649 104.387C504.977 105.553 503.011 106.175 501 106.175C498.989 106.175 497.023 105.553 495.351 104.387C493.679 103.221 492.375 101.564 491.606 99.6256C490.836 97.6868 490.635 95.5534 491.027 93.4953C491.42 91.4371 492.388 89.5465 493.81 88.0627L491.808 85.9732Z" fill="#383432"/>
<path d="M499.289 105.58L501.469 108.683L496.064 113.78L499.289 105.58Z" fill="#383432"/>
<path d="M500.897 106.871L505.507 115.239L501.048 113.086L496.699 115.454L500.897 106.871Z" fill="#383432"/>
<path d="M501.701 105.954L506.958 113.025L500.97 109.453L501.701 105.954Z" fill="#383432"/>
<line x1="498.674" y1="108.63" x2="503.326" y2="108.63" stroke="#913737" stroke-linecap="round"/>
<line x1="486" y1="125" x2="486" y2="87" stroke="#635141" stroke-width="2"/>
<line x1="486" y1="87" x2="486" y2="79" stroke="#322E2B" stroke-width="2"/>
<ellipse cx="701" cy="95.5652" rx="13" ry="13.5652" fill="#F4D9A5"/>
<ellipse cx="701" cy="95.5652" rx="10.7391" ry="11.3043" fill="#383432"/>
<path d="M691.808 85.9732C689.99 87.8703 688.751 90.2874 688.25 92.9188C687.748 95.5502 688.006 98.2777 688.99 100.756C689.974 103.235 691.64 105.354 693.778 106.844C695.915 108.335 698.429 109.13 701 109.13C703.571 109.13 706.085 108.335 708.222 106.844C710.36 105.354 712.026 103.235 713.01 100.756C713.994 98.2777 714.252 95.5502 713.75 92.9188C713.249 90.2874 712.01 87.8703 710.192 85.9732L708.19 88.0627C709.612 89.5465 710.58 91.4371 710.973 93.4953C711.365 95.5534 711.164 97.6868 710.394 99.6256C709.625 101.564 708.321 103.221 706.649 104.387C704.977 105.553 703.011 106.175 701 106.175C698.989 106.175 697.023 105.553 695.351 104.387C693.679 103.221 692.375 101.564 691.606 99.6256C690.836 97.6868 690.635 95.5534 691.027 93.4953C691.42 91.4371 692.388 89.5465 693.81 88.0627L691.808 85.9732Z" fill="#383432"/>
<path d="M699.87 105.739L701.565 109.13L695.464 113.37L699.87 105.739Z" fill="#383432"/>
<path d="M701.218 106.875L705.181 115.569L700.898 113.084L696.382 115.116L701.218 106.875Z" fill="#383432"/>
<path d="M702.13 105.739L706.536 113.37L701 109.13L702.13 105.739Z" fill="#383432"/>
<line x1="698.674" y1="108.63" x2="703.326" y2="108.63" stroke="#913737" stroke-linecap="round"/>
<line x1="686" y1="124" x2="686" y2="86" stroke="#635141" stroke-width="2"/>
<line x1="686" y1="86" x2="686" y2="78" stroke="#322E2B" stroke-width="2"/>
<defs>
<filter id="filter0_d_50_250" x="79.5667" y="479.004" width="39.2952" height="54.0295" filterUnits="userSpaceOnUse" color-interpolation-filters="sRGB">
<feFlood flood-opacity="0" result="BackgroundImageFix"/>
<feColorMatrix in="SourceAlpha" type="matrix" values="0 0 0 0 0 0 0 0 0 0 0 0 0 0 0 0 0 0 127 0" result="hardAlpha"/>
<feOffset dy="4"/>
<feGaussianBlur stdDeviation="2"/>
<feComposite in2="hardAlpha" operator="out"/>
<feColorMatrix type="matrix" values="0 0 0 0 0 0 0 0 0 0 0 0 0 0 0 0 0 0 0.4 0"/>
<feBlend mode="normal" in2="BackgroundImageFix" result="effect1_dropShadow_50_250"/>
<feBlend mode="normal" in="SourceGraphic" in2="effect1_dropShadow_50_250" result="shape"/>
</filter>
<filter id="filter1_d_50_250" x="275.567" y="477.004" width="47.2942" height="62.0295" filterUnits="userSpaceOnUse" color-interpolation-filters="sRGB">
<feFlood flood-opacity="0" result="BackgroundImageFix"/>
<feColorMatrix in="SourceAlpha" type="matrix" values="0 0 0 0 0 0 0 0 0 0 0 0 0 0 0 0 0 0 127 0" result="hardAlpha"/>
<feOffset dy="6"/>
<feGaussianBlur stdDeviation="4"/>
<feComposite in2="hardAlpha" operator="out"/>
<feColorMatrix type="matrix" values="0 0 0 0 0 0 0 0 0 0 0 0 0 0 0 0 0 0 0.3 0"/>
<feBlend mode="normal" in2="BackgroundImageFix" result="effect1_dropShadow_50_250"/>
<feBlend mode="normal" in="SourceGraphic" in2="effect1_dropShadow_50_250" result="shape"/>
</filter>
<filter id="filter2_d_50_250" x="480" y="474" width="39.9995" height="59" filterUnits="userSpaceOnUse" color-interpolation-filters="sRGB">
<feFlood flood-opacity="0" result="BackgroundImageFix"/>
<feColorMatrix in="SourceAlpha" type="matrix" values="0 0 0 0 0 0 0 0 0 0 0 0 0 0 0 0 0 0 127 0" result="hardAlpha"/>
<feOffset dy="4"/>
<feGaussianBlur stdDeviation="2"/>
<feComposite in2="hardAlpha" operator="out"/>
<feColorMatrix type="matrix" values="0 0 0 0 0 0 0 0 0 0 0 0 0 0 0 0 0 0 0.3 0"/>
<feBlend mode="normal" in2="BackgroundImageFix" result="effect1_dropShadow_50_250"/>
<feBlend mode="normal" in="SourceGraphic" in2="effect1_dropShadow_50_250" result="shape"/>
</filter>
<filter id="filter3_d_50_250" x="702" y="485" width="28" height="29" filterUnits="userSpaceOnUse" color-interpolation-filters="sRGB">
<feFlood flood-opacity="0" result="BackgroundImageFix"/>
<feColorMatrix in="SourceAlpha" type="matrix" values="0 0 0 0 0 0 0 0 0 0 0 0 0 0 0 0 0 0 127 0" result="hardAlpha"/>
<feOffset dy="4"/>
<feGaussianBlur stdDeviation="2"/>
<feComposite in2="hardAlpha" operator="out"/>
<feColorMatrix type="matrix" values="0 0 0 0 0 0 0 0 0 0 0 0 0 0 0 0 0 0 0.25 0"/>
<feBlend mode="normal" in2="BackgroundImageFix" result="effect1_dropShadow_50_250"/>
<feBlend mode="normal" in="SourceGraphic" in2="effect1_dropShadow_50_250" result="shape"/>
</filter>
<filter id="filter4_d_50_250" x="683" y="493" width="28" height="29" filterUnits="userSpaceOnUse" color-interpolation-filters="sRGB">
<feFlood flood-opacity="0" result="BackgroundImageFix"/>
<feColorMatrix in="SourceAlpha" type="matrix" values="0 0 0 0 0 0 0 0 0 0 0 0 0 0 0 0 0 0 127 0" result="hardAlpha"/>
<feOffset dy="4"/>
<feGaussianBlur stdDeviation="2"/>
<feComposite in2="hardAlpha" operator="out"/>
<feColorMatrix type="matrix" values="0 0 0 0 0 0 0 0 0 0 0 0 0 0 0 0 0 0 0.25 0"/>
<feBlend mode="normal" in2="BackgroundImageFix" result="effect1_dropShadow_50_250"/>
<feBlend mode="normal" in="SourceGraphic" in2="effect1_dropShadow_50_250" result="shape"/>
</filter>
<filter id="filter5_d_50_250" x="900.636" y="488.152" width="23.7576" height="24.5455" filterUnits="userSpaceOnUse" color-interpolation-filters="sRGB">
<feFlood flood-opacity="0" result="BackgroundImageFix"/>
<feColorMatrix in="SourceAlpha" type="matrix" values="0 0 0 0 0 0 0 0 0 0 0 0 0 0 0 0 0 0 127 0" result="hardAlpha"/>
<feOffset dy="4"/>
<feGaussianBlur stdDeviation="2"/>
<feComposite in2="hardAlpha" operator="out"/>
<feColorMatrix type="matrix" values="0 0 0 0 0 0 0 0 0 0 0 0 0 0 0 0 0 0 0.25 0"/>
<feBlend mode="normal" in2="BackgroundImageFix" result="effect1_dropShadow_50_250"/>
<feBlend mode="normal" in="SourceGraphic" in2="effect1_dropShadow_50_250" result="shape"/>
</filter>
<filter id="filter6_d_50_250" x="885.667" y="494.455" width="23.7576" height="24.5455" filterUnits="userSpaceOnUse" color-interpolation-filters="sRGB">
<feFlood flood-opacity="0" result="BackgroundImageFix"/>
<feColorMatrix in="SourceAlpha" type="matrix" values="0 0 0 0 0 0 0 0 0 0 0 0 0 0 0 0 0 0 127 0" result="hardAlpha"/>
<feOffset dy="4"/>
<feGaussianBlur stdDeviation="2"/>
<feComposite in2="hardAlpha" operator="out"/>
<feColorMatrix type="matrix" values="0 0 0 0 0 0 0 0 0 0 0 0 0 0 0 0 0 0 0.25 0"/>
<feBlend mode="normal" in2="BackgroundImageFix" result="effect1_dropShadow_50_250"/>
<feBlend mode="normal" in="SourceGraphic" in2="effect1_dropShadow_50_250" result="shape"/>
</filter>
</defs>
</svg>
