<svg width="87" height="38" viewBox="0 0 87 38" fill="none" xmlns="http://www.w3.org/2000/svg">
<rect width="87" height="38" rx="10" fill="#D3E3E4"/>
<path d="M33.5 25L36.5 27.5L37 24.5L40.25 27.5L41.5 25L44 27.5L46.5 25L47.5 27.5L50 24.5L51 27.5L54.5 25L48.5 31.5L44 33L39 31.5L33.5 25Z" fill="#B5C7C8"/>
<path d="M39.5 29L42 30.5L44 30L46 30.5L48.5 29L47 31L44 32L41 31L39.5 29Z" fill="#D3E3E4"/>
<path d="M43 22C43 22.5523 43.4477 23 44 23C44.5523 23 45 22.5523 45 22H43ZM44 9L38.2265 19H49.7735L44 9ZM45 22V18H43V22H45Z" fill="#B5C7C8"/>
</svg>
